<svg width="36" height="32" viewBox="0 0 36 32" fill="none" xmlns="http://www.w3.org/2000/svg">
<path fill-rule="evenodd" clip-rule="evenodd" d="M17.5765 0.00412194C19.7079 0.00412194 21.1879 0.00412194 22.0166 0.00412194C22.5031 0.00412194 22.9194 0.284461 23.0967 0.73795C29.8125 17.5995 33.8114 27.6381 35.0936 30.8579C35.2008 31.1217 35.1678 31.3979 35.0111 31.6329C34.8503 31.8679 34.6071 31.9998 34.3226 31.9998H22.1732L26.4814 21.5407L18.0547 5.8129V20.9842C19.0029 21.2027 19.712 22.0478 19.712 23.062C19.712 24.2411 18.7556 25.1975 17.5806 25.1975C16.4016 25.1975 15.4492 24.2411 15.4492 23.062C15.4492 22.0478 16.1583 21.1986 17.1065 20.9842V5.8129L8.67164 21.5407L12.9798 31.9957H0.834524C0.550063 31.9957 0.306828 31.8679 0.146045 31.6288C-0.0147374 31.3938 -0.0435953 31.1176 0.063593 30.8537C1.34573 27.634 5.34468 17.5913 12.0604 0.733827C12.2418 0.280338 12.6541 0 13.1406 0C13.9651 0.00412263 15.4451 0.00412194 17.5765 0.00412194Z" fill="#01885E"/>
<path fill-rule="evenodd" clip-rule="evenodd" d="M26.4814 21.5407L25.8548 23.0621C28.3201 25.882 30.5999 28.8668 32.686 32H34.3185C34.603 32 34.8462 31.8722 35.007 31.6331C35.1678 31.3981 35.1966 31.1219 35.0895 30.858L26.234 8.61645C25.0261 10.4016 23.7028 12.0918 22.2681 13.679L26.4814 21.5407Z" fill="#049967"/>
<path fill-rule="evenodd" clip-rule="evenodd" d="M22.2681 13.679C23.7028 12.0918 25.0261 10.4016 26.234 8.61645L23.0967 0.73795C22.9153 0.284461 22.5031 0.00412194 22.0166 0.00412194H17.5765L13.1364 0.004026C12.65 0.004026 12.2336 0.284365 12.0563 0.737854L9.06329 8.25341C10.7206 9.37064 12.3367 10.5415 13.9074 11.7659L17.0983 5.80869V14.3755C17.4199 14.6517 17.7373 14.9279 18.0506 15.2083V5.80869L22.2681 13.679Z" fill="#0F8959"/>
<path fill-rule="evenodd" clip-rule="evenodd" d="M8.67164 21.5407L13.9074 11.7659C12.3367 10.5415 10.7206 9.37064 9.06329 8.25341L1.69203 26.7639C4.40472 25.9353 7.01846 24.8593 9.50441 23.5606L8.67164 21.5407ZM17.0983 14.3795V18.5722C17.4199 18.3125 17.7373 18.0487 18.0506 17.7766L18.0506 15.2083L17.0983 14.3795Z" fill="#02A06C"/>
</svg>
